/* XPM */
static char *d6604ac950254be5c727bab6088cc615cGlZkzFvDTmCfwzT[] = {
/* columns rows colors chars-per-pixel */
"64 64 195 2 ",
"   c #034300",
".  c #064800",
"X  c #0C4D00",
"o  c #154E00",
"O  c #0D5200",
"+  c #145400",
"@  c #1B5600",
"#  c #165900",
"$  c #1C5C00",
"%  c #225600",
"&  c #235E00",
"*  c #295D00",
"=  c #1E6300",
"-  c #246400",
";  c #2B6501",
":  c #266902",
">  c #2B6B03",
",  c #26670C",
"<  c #2D6508",
"1  c #266A08",
"2  c #2C6D0A",
"3  c #316D04",
"4  c #386B02",
"5  c #306709",
"6  c #326D0B",
"7  c #3A6E0C",
"8  c #2D7105",
"9  c #2E720B",
"0  c #337304",
"q  c #397505",
"w  c #367906",
"e  c #3B7A05",
"r  c #34740C",
"t  c #3A750D",
"y  c #35790C",
"u  c #3B7B0C",
"i  c #2D6E12",
"p  c #366D11",
"a  c #396F12",
"s  c #2F7413",
"d  c #347512",
"f  c #3B7512",
"g  c #367913",
"h  c #3B7B13",
"j  c #357719",
"k  c #3F7619",
"l  c #357A19",
"z  c #3C7D1A",
"x  c #3C7F20",
"c  c #41740F",
"v  c #407C0D",
"b  c #427415",
"n  c #427D15",
"m  c #4A7D14",
"M  c #437D1B",
"N  c #4A7E1D",
"B  c #447F20",
"V  c #4C7F20",
"C  c #3D800F",
"Z  c #3D8115",
"A  c #3E821A",
"S  c #3D8322",
"D  c #418106",
"F  c #42810E",
"G  c #448314",
"H  c #488515",
"J  c #468916",
"K  c #4B8A15",
"L  c #43831B",
"P  c #4A851D",
"I  c #46891D",
"U  c #4B8B1C",
"Y  c #51861C",
"T  c #518B1D",
"R  c #4E911E",
"E  c #53921D",
"W  c #448522",
"Q  c #4B8523",
"!  c #468922",
"~  c #4B8B24",
"^  c #4E8729",
"/  c #478C2A",
"(  c #4C8C29",
")  c #528623",
"_  c #528D24",
"`  c #5A8D26",
"'  c #528528",
"]  c #538C2A",
"[  c #598D2D",
"{  c #4E9124",
"}  c #4E912B",
"|  c #539324",
" . c #599526",
".. c #579A27",
"X. c #5A9925",
"o. c #579029",
"O. c #55972B",
"+. c #579529",
"@. c #55972D",
"#. c #53932B",
"$. c #5A9629",
"%. c #5B932E",
"&. c #5A922D",
"*. c #5A952E",
"=. c #5D942F",
"-. c #5C972D",
";. c #5A952C",
":. c #56982E",
">. c #56992C",
",. c #599C2B",
"<. c #5E9D28",
"1. c #5F9E2C",
"2. c #5B9B2D",
"3. c #558F30",
"4. c #588E30",
"5. c #4F9130",
"6. c #559532",
"7. c #5B9533",
"8. c #569934",
"9. c #5B9B34",
"0. c #539438",
"q. c #5E9738",
"w. c #579938",
"e. c #5C9D39",
"r. c #62952E",
"t. c #619C2D",
"y. c #609732",
"u. c #629634",
"i. c #619833",
"p. c #619F32",
"a. c #619934",
"s. c #629A35",
"d. c #629C34",
"f. c #689F37",
"g. c #649739",
"h. c #629D3B",
"j. c #6C9F3B",
"k. c #5DA02F",
"l. c #5DA134",
"z. c #5EA13A",
"x. c #63A22D",
"c. c #66A62C",
"v. c #60A236",
"b. c #64A335",
"n. c #69A436",
"m. c #65A837",
"M. c #67A538",
"N. c #63A33C",
"B. c #69A03B",
"V. c #6CA73B",
"C. c #6BA23D",
"Z. c #6CA33E",
"A. c #6AA53C",
"S. c #67A93F",
"D. c #67A93E",
"F. c #68AB3A",
"G. c #6CAA3D",
"H. c #71A63C",
"J. c #73AD3E",
"K. c #72B13F",
"L. c #669F41",
"P. c #64A542",
"I. c #6AA442",
"U. c #65A842",
"Y. c #6CAA44",
"T. c #63A448",
"R. c #6FA648",
"E. c #66A948",
"W. c #6DAD4A",
"Q. c #71A541",
"!. c #72AD42",
"~. c #74A74A",
"^. c #72AE4A",
"/. c #79AF4D",
"(. c #6EB146",
"). c #6FB04D",
"_. c #70B244",
"`. c #74B746",
"'. c #71B443",
"]. c #74B34B",
"[. c #79B74A",
"{. c #7EB64B",
"}. c #79BC4C",
"|. c #6FB451",
" X c #76B553",
".X c #7FB651",
"XX c #7BB455",
"oX c #77B853",
"OX c #7BBB54",
"+X c #7EB758",
"@X c #82B954",
"#X c #87BA53",
"$X c #85BD58",
"%X c #8AC25D",
"&X c #8BC966",
/* pixels */
"D c.E D > G > &.f h _ t U ;  .e _ ) ; Q j.-.* t 7 -.` N @Xy.) o.P u n U _ Y P P 0 4 % @ f ^ * _ h w ..Z w R (...{ >.8 L u g h ~ ",
"e E E U X.p.0 t 0 0 ~ p.[.u U v b m ; m y.y.; > C.y.P a.@XC.&.* H. .Y $.V.V.-.P f t Q L f ) M L U q G w w Z b.U U ! r l.S.>.y 8 ",
": e E 0 G u ; 3 k t n ~ M.r F H n P 7 f ) q.t % 4 f f &.* $ g.` G U U T T  .T P n 7 a.-.6 P u.n y = Z ..,.J G - I Z = I O./ L I ",
"D K x.> G 0 G P P ~ I n U H E  .Q ` n 6 n u.) * M n * s.] 7.a.o $ 4 t v 3 t t n P ; Q Q < h q.L R 8 C R O.C Z w I O.L U I y y y ",
"X.K x.0 t.| +.G > n ~ -.$.| G U _ [ P * 6 &.&.t n j.n n ; 7 P 4 q n t H c _ v 0 P 4 ; h n n Q Q w 0 ..m.`.R C 8 G l.O.G Z Z @.>.",
"K D X.0 K H | L u ; G `.+.H - 0 _ -.P % 4 M m 3 ; u.[ ] a.y.n ; t P v  .v  .P P Q n * _ -.] h H | J K Z R C { O.h { h : h I M.e.",
"e e <.0 u G 2.1.n.0 n [.G ~ 3 t h o.) ; M f 5 3 n M ) 0 n t * 3 * v c X.q U n o.n Y ; d._ r.n n 0 C R Z ..J I C r Z G Z >.r y = ",
"0 > K e K X.t.| 1.; 0 2.; 1.H r % M Q 0 a.M 6 h f ; B.o._ t 6 Q t t ;  .n o.q n t U - M.t  .P w : u J 0 I I J 8 8 8 y Z *.2 Z ! ",
"e 0 E u E k. .E G G 0 0 b.P $ P f & G 9.] h t t ; + & Q h - n ~ T V.n t.P B.K * P H t U 3 3 3 H ..0 R ..I U u J Z - h 8 l.h I U.",
"0 v K u K G E H F 2.2.; _ _ P ~ P 3 L ~ n h P P ~ P t > & f A.o.t T H d.G $.0 4 _ u u Y r.T T E R R Z { m.O.J | y u { w y I I y ",
"0 v e e G > E u > K x.$ u P *.~ ~ M ~ Q f Q d.6.X ; t 6 2 L ] $ t n a.!.T t.v d.H q T X.c.F T E w E > J }.k.O.O.L 0 y r > I P L ",
"> q 0 w F 0 E K 3 0  .u h n ~ #.n n L L 0 M #.t - ; t P n ~ 9.n v H o.d.m T n V.v q T t.t.e q v > R = J F.R O.h Z 8 8 y ! I g >.",
"G > H e H u D K e 0 H | r n 0 M ~ ~ P W y t L + L t 0 z 0 f 8.@.&.B.U ] t u U T m 0 3 E t.E v q J ..w R R C { = - U N.Z Y.Z - A ",
"U ; F 0 H D > e D u e U 3 $.M ^ } ^ h | h y ~ ; h n L Q h W A.#.&.n.n G 3 * q 3 0 q > T K x.E X.E ..k...Z J I : 8 / `.{ (.= $ 9.",
"U > 0 e X.D e 0 K K K ~ P U.6.A.t 0 ; ~ h - ~ y y 3 : : - r *.L A.B.M.Y.B.T | t.q K T H q D E n.J R (.J w | u ~ | h @.{ #.: y (.",
"P r ; U K.E <.F H e v G U P f ^ n g y d.P - ~ P ] n g _ ~ H | h 0 < o.A.M.| G V.n.n.n.e q 3 K K w { }.: 8 +.- 2.1.y H H t 8.l.H ",
"P ~ - D.n.,.u G 0 ; > v m t t n -.n.H { U H t M.G.2.| U U P G v.~ ~ 8.h.A.t | 9.8.9.A.g P W +.#.Z { +.: h 3 ; m $.d.v Y t.4 q J.",
"8 g : { H Z > w E v 0 t P _ n ; P 2.3 3 v u > F.| p.T - > U u U 9.h ~ g ! y W } 2 ! N.L A z h = g ~ ~ 5 ^ ' 4 ; ` m m Y T v E r.",
"y y y h G I q G U H v t P ) P 5 | U > 0 t w q $.G p._ + > T U +.OXP ( > } } ( ^ ; h 8.h > 9 h + X 2 G P !.$Xm % N 4 Y Y v v J.K ",
"h 2 2 $ h ..C u t H P n t t n P n.r t P w u H 3 n U H - t q t *.U.g ~ - ( 8.z y z h W P 9 d } r > t : 2 m ^.) N r.r.H.Y r.m J.n.",
"W y y $ y O.G C _ G v H P h f M o.w 3 n _ P u ; P ~ $.u ~ 0 > } o.2 L 1 z 6.9 : L g g 9.~ L 6.d : y n o.^ ] * * % r.C.Y @X* @ v ",
"z / P g y I u J d.0 $ t ` ` f ; t P > - M.o.r ~ w n d.n #.H H P | A A h d #.d A A g : #.W z ~ 9 L f L P t t * 4 ` #Xr.c t.% * J.",
": ~ g P y h q y | 0 * 0 ^ _ n ; 2 t h 0 9._ U *.2 - _ 2 L P o.0 P W : L $ A 2 L g Q $ d 9 h ! 9 y : L L Q Q c * c ) [ H.C.4 * 3 ",
"1 #.y e.{ @.G u G | &.P f t 6 6 g @ ] 2.n g I.G *.3 *.n @.o.h.y W #.: ( $ h : W - #.: y 2 L ~ ; ( 8 y @ t ` r.n j.c n a.4 7 7.t ",
"2 d 2 P P ~ h H y r 0 f M 7 6 M * _ f h _ n W P *.0 Q ~ 2 n L 6 2 ] g ~ : P W @.z r } h L z 9 d L 9._ P b P V H.j.; V b ` ; /.7 ",
"z #.( z : 9.M.r & > t m _ M ; * M h ; d L Q ] 6 z % h f 2 Q ] 6 L } W L M 8.} 8.L d P.: ( d ! h - #.U.Y.` P b ` N m r.[ /.N y.5 ",
"W 2 g A X : z t > t t t ~ ^ a < d < f M < d 6.z h.: B f ] q.q.2 ( #.e.g ~ ( z } z L W.g z.#.9.z P A L t t P u.f.' u.V 7 ' a Q [ ",
"6.$ $ } 2 $ - W P P h k ^ ' B Q ; f 6.] < < B ^ ' < w.M M 1 Q ^ #.L ( 2 ( 9.9 h g H / W / 9.9.@.g : r n Q ] g.b m ` V N ' a 5 Q ",
"W j $ h } #.: 0 L P P 7.j.' B 3.^ ( Q k B z p M e.- < o ( h.L.6 Q 9 r y @.oXh h : 2 0 ~ ~ ~ L z { Z A n 6 P =.` V b ' ~.[ a < b ",
"+ W s d W W & 0 n h P q.h.M k q.5.^ f , Q 5.j ^ d ^ P.< d q. X6.r 2 ! ( L 8.z ! 6.d - + 9 - / } A.O.y h t y.g.u.g.b V L.f 5 p B ",
"+ W W ^ h r : ~ h f t M M p a 6.p , d a B 5.B 4.B 3.h.i p 0.q.B 2 d P.e.g : L W 2 d A ^ N.h h $ 0 L 3 I.~.%XN * [ b g.' b a p 5 ",
"d W x z 2 ~ Z 0 ; 0 0 6 d 2 p B p o f W B ^ B j 3.3.0.^ z B k W ^ y 9.@.^ 9 e.h ! @.: h 2 A W d 6.v.$ t * g.b g.g.[ L.B B V M k ",
"s Z A @.A { Z 8 y y Z g - } d d ^ = + - W W ( # , Q / 3.Q 2 z W e.h ~ > 1 - : 0 - #.> 8.y h g : 6 $ 7 Q < 3.a & ~.^ [ ' ] t t f ",
"= g ! >.Z I { l.O.h > L d A j + s B x ] d B 6.z $ / z d W W 0.h ~ / 9.( 6./ g ( 6.#.g z A - h r Q @ ^ ^ XXL.L.^ B 3.M ; > m 2.-.",
"{ / A { y A C y y y y l.1 # A s 2 ^ z w.i e.T.6.L.e.z z w.g ^ 1 2 h A ~ 9.8.r A ( h h : ^ A 9.e.9.* Q M +XB k p @ ^ < 2 3 n ` | ",
"/ g = C Z { y = I : 9 @.9 y 8.l W S $ ^ j E.oXE.).0.2 j E.B 0.z L z d / ~ e.S f z ( ~ d A 6.} h.^ 6 < Q q.4.W g.< ^ 6 N ` 7 0 G ",
": > 9 l 8 Z C 8 l.8 @.{ 8 A 8.S 6.z z ^ M L W.oX( ( 6 = ~ } e.z 6.A h 8.d #.6.h d ( } z ! W h 9.B.A.M 7.f ^ B I.q.7.Q n Y.3 n _ ",
"9 g g Z = y y Z R w S.! = y / } } g ! ( W $ ( 6.w.W g 2 d W 2 d W A P ( : 2 } h h z L y 6.- < #.g ^ k M < k 6.L.] ^ u.6 C.H X._ ",
"2 2 1 Z s { R A I : Z Z A A S Z z : z A W = P u P.h z W g ( + ~ #.@.L g z d / L ! N.h 2 / - = - U o.] 6.k 2 M ; < < A.: | $.o.G ",
"1 2 s ! Z { Z 8 C y A k.k.: S A $ $ g A A 1 6./ E.@.e.~ 1 N.X g P.Y.2 + 6.L L g = W.= > h 9.z $ 3 h M ].^ W W * ; - 9.3 t o.H K ",
"j z s ! s h g 0 : { : l.8 9 S Z W . ~ e.e.0 d P.@.Q 8.L - Y.- h : ( $ 2 #.( W.9.. e.A d g P z z L 8 ~ OXf d ( 9 f ].}.h P ; > C ",
"i i d d r 9 I Z : 8 . C C { { Z h - ~ #.! z A ~ d : ( g 9 6.h z A P.z g W 9 z L - 6.h h W ! L A r Y.P P P k : - d 6.{ ; u u > : ",
"s $ i - l d / Z R R C R : C 9 { L H A } y h ~ h #.y 8.r y 0 Q A   d y 2 L h A Y.1 > - > P ! z.8.Z > : #.$ A OXd r W h r w | J w ",
"i j T.6.A y { m.S C = C C { 8 Z #.8.y e.y L 6.! U.~ l.! L : ! r - ~ } t h 2 O L } h l - 2 : ~ h h D.X - #.A W ].h L / ,.u J R R ",
", i / 0.g ! Z { 8 = 8 8 Z >.w { h ~ $ } - g +.L L A ! { U h ~ 0 d L #.z 6.} : 6.h y ~ 9 : h 8.~ ~ | : L g y @.z.! Z { (.y 8 8 J ",
"# + , l > / 8 0 : C J C I { w k.g 9.y 9.d 9.].{ 0 Z > h y / { #.8.( @.~ 9.8.d L } ( P.~ 2 r d - - I h Z r L ~ 6.~ r L m.J 8 w K ",
", , 0.W 1 d 8 ! w w = = J l.Z C : u 8 O.8 Z ! 8 Z +.h : 8 ! L 8.A 2 d A ~ } L A L d ! W h ! g z > { { g 9 G 1 ( Z > y I J C R E ",
"T.i z = A / 8 = I k.Z = Z R Z Z G g A ].{ r 8 8 d l.9.y A P : h : $ - d d z ! h 9.g y A h ( 0 ~ J 8 ~ I ; h r z.0 > y > C 0 J J ",
"j S / s , O 1 5.= g h : u ..E ,.G L 2 +.~ h   g L Y.L ^ 3.2 Q 0.1 A = 1 ! A 9 { ! Z A 9 A } I >.r = L o.0 M & I ~ ~ o.: _ u I | ",
"/ / x = S l S / 9 s ~ y G | q w U *.U L P ~ 6 ~ ]  XI.9.6.M ( 6.9 w.= = A } d l.= 8 Z C { (.{ I Z ; P t 3 t ; n L _ A.~ D.t h Q ",
"i S / , l O 1 E.A = g 8 C b.G F y h h = 2 0 - f 6.Y.Y.w.W W x - ! ! g >.1 { Z A Z l.8.{ Z l.8 : h 3 P - r u t 0 3 *.A.3 n t n 0 ",
"l = O = / # O / ! = ! r : F > y I L I Z G f - z M z ^ h 6 ^ j   9.S A U.= g : : : { { Z : I C I 0 g ~ ; h ^ M h L 9.*.; M L _ Q ",
"9 = = Z S s 1 0.d d ).>.; ; > J 8 y 8 A : 8 O = g t } ( z e.w.* S E.A > : Z X ! O 8 : 8 8 Z I l.0 ' ~ h n *.Q _ P ; $ t 9.3 & n ",
"S A S 1 w.E.w.S W L #.L 0 w u I C A Z I = S 1 C $ - z z $ - j $ - w.9.: > w.l { Z A y Z { I Z y 0 #.u f 0 P n 2.v.h ; Q !.~ 6 P ",
"= S U.C s S |.S w.0.: + : 8 e : A Z A S : A Z S g A A ( d = S g - > )./ ; { 8.g I } { Z 9.L { 8 : n 3 6 M t f 9.] #.t - M *.G t ",
"Z Z S = 1 w.oXS l z.z r G G *.| ..C A { A 9 Z / h d $ S x - / x s & l.g 9 : > h d >.{ = u $ I 3 2 t 0 t 9.h L d.I &.h 0 P @.P h ",
"9 } z.9 = # 5.w.E.8.d #.; u H : C C Z >.8.C = Z z.8.z.1 . } = = r $ ^ L L g > @ L n ~ ; r ; : 0 g n h n o.P A.*._ ~ 0 h ] t v.h ",
"Z C S S S = x e.+ # W #.L : *.@...S S l.S / = S z.9 z.9 l s S T.L W #.@ W z f P G h P 2 I G u h 3 t t ~ o.L @._ o.t & P _ ; P M ",
"S Z A l.e.l S e.z.z 6.A y & r y / S S / C } C Z @.= ! d S O 1 w.^ 2 r @ : ^ >.P n g L t U P u G n M t _ P y g n g M > P L P 9.~ ",
"C : 8 = : : $ = # 1 e.z.h h y } C C ..C = S C # y 1 s A } / 5.T.! 2 f w.6 9.9.z L h L t y r ; u | ~ g _ f t t ~ % u > h 3 ] 2.n ",
"Z Z S C 9 I 9 = / 2 d $ : P L L C = 5.S C / S = = 9 9 s S l.z.|.w.6.M ~ h 6 h B.n n H t > > : P 9.~ n o.n P h d.t t 0 ] n P P h ",
"Z C Z Z d S = 2 X - P.r W % Z I C Z S / # S C C 9 Z S = s = = z.Q @ 6 *.I.> t $ t h L L t n 0 $.Y.&.] | P P h _ n P ~ ~ P 9.*.L ",
"Z C C S z } - W 5.g W 1 9.& g 2 C S C S = S Z Z C S 8.Z s S = 0.&X* @ L 6 6 Y.L h n n o. .9.h | ].*.*.h n h 6 n 0 Q #.; 0 9.b.3 ",
"/ C S Z j z.z 0.W s 1 ( ^.2 ; - C C = Z / C S S 9 z.z.S 1 |.O d e.9.< ^.; M n ~ M u g a.F.!.t t Y.P I & 3 t h L @.P ] 3 L ~ o.f "
};
