/* XPM */
static char *_a5c415be92e49d2f347debfeb276197Y82aCUrYV8WKGzk2[] = {
/* columns rows colors chars-per-pixel */
"48 48 177 2 ",
"   c None",
".  c gray10",
"X  c #1B1B1B",
"o  c gray12",
"O  c #33281D",
"+  c #3A2C1E",
"@  c #3E2F1F",
"#  c #202020",
"$  c #222222",
"%  c #252525",
"&  c gray16",
"*  c gray17",
"=  c #2D2D2D",
"-  c gray18",
";  c #2F2F2F",
":  c gray19",
">  c #313030",
",  c #313131",
"<  c #323131",
"1  c #343230",
"2  c #343231",
"3  c #373430",
"4  c #363433",
"5  c #3E3B36",
"6  c #44321F",
"7  c #413426",
"8  c #523920",
"9  c #403E34",
"0  c #544230",
"q  c #534F38",
"w  c #5F5B3A",
"e  c #68623C",
"r  c #514B43",
"t  c #574D42",
"y  c #534D44",
"u  c #5B5245",
"i  c #645B4D",
"p  c #6C5D4C",
"a  c #6F624F",
"s  c #716E4D",
"d  c #7E7742",
"f  c #796B58",
"g  c #835526",
"h  c #9E6730",
"j  c #A36A2A",
"k  c #A6682A",
"l  c #AB6A2A",
"z  c #AB6B2A",
"x  c #AB6A2B",
"c  c #AB6B2B",
"v  c #AC6A2A",
"b  c #AD6A2A",
"n  c #AC6B2A",
"m  c #AC6B2B",
"M  c #AC6C2A",
"N  c #AD6C2A",
"B  c #AC6C2B",
"V  c #B16E2B",
"C  c #B26D2C",
"Z  c #B06E2C",
"A  c #B36F2C",
"S  c #B46F2D",
"D  c #B2712B",
"F  c #B6712C",
"G  c #B5722D",
"H  c #B7732F",
"J  c #B7742D",
"K  c #B8732E",
"L  c #BA732E",
"P  c #B9742D",
"I  c #BB742E",
"U  c #BB762F",
"Y  c #BC752E",
"T  c #BD752E",
"R  c #BC742F",
"E  c #BD742F",
"W  c #BC762E",
"Q  c #BD762E",
"!  c #BD762F",
"~  c #B9782F",
"^  c #BD7630",
"/  c #B47C3F",
"(  c #C37A30",
")  c #84735A",
"_  c #8D7A5C",
"`  c #8E7B65",
"'  c #D0832E",
"]  c #D1852F",
"[  c #D5872F",
"{  c #D4882F",
"}  c #CE8431",
"|  c #D08430",
" . c #D18431",
".. c #D48630",
"X. c #D58730",
"o. c #D48631",
"O. c #D58731",
"+. c #D78730",
"@. c #D68831",
"#. c #D78831",
"$. c #B78042",
"%. c #B48245",
"&. c #B48047",
"*. c #998263",
"=. c #A38A6A",
"-. c #AC936E",
";. c #AD946F",
":. c #B1946F",
">. c #B69B76",
",. c #B09978",
"<. c #B49978",
"1. c #BFA076",
"2. c #C18748",
"3. c #C3884A",
"4. c #D4A25C",
"5. c #CFAD7E",
"6. c #CFAE7F",
"7. c #D0AD7F",
"8. c #D4C455",
"9. c #D5C555",
"0. c #D5C656",
"q. c #D6C656",
"w. c #D6C756",
"e. c #DACB5D",
"r. c #D8CA62",
"t. c #DCD063",
"y. c #DCD164",
"u. c #DED36B",
"i. c #E2D66C",
"p. c #E8E17F",
"a. c #979591",
"s. c #979797",
"d. c #CFAD80",
"f. c #CFAE80",
"g. c #C3AD8F",
"h. c #D0AD80",
"j. c #D0AE80",
"k. c #CFB189",
"l. c #D4BD83",
"z. c #D7BF8E",
"x. c #DBB88B",
"c. c #DCB98A",
"v. c #DDB88B",
"b. c #C5B194",
"n. c #CFC28E",
"m. c #D2C48E",
"M. c #D9C798",
"N. c #D0C899",
"B. c #E5C392",
"V. c #EBC796",
"C. c #EBC898",
"Z. c #F1CC9A",
"A. c #F0CD9B",
"S. c #F1CE9D",
"D. c #F3CF9F",
"F. c #F4CF9E",
"G. c #F4D09E",
"H. c #F4D09F",
"J. c #EDE681",
"K. c #EEE782",
"L. c #EDE784",
"P. c #EEE684",
"I. c #EFE784",
"U. c #EFE985",
"Y. c #EFE986",
"T. c #F0E886",
"R. c #F0E986",
"E. c #DCC5A6",
"W. c #DEC7AA",
"Q. c #D3D1A3",
"!. c #DAD8B4",
"~. c #E5D1BD",
"^. c gray86",
"/. c #EEE1D1",
"(. c #E3E2DF",
"). c gray88",
"_. c #F4F4F4",
/* pixels */
"                                                                                                ",
"                                                                                                ",
"                              ; ;           ; ; ; ;                                             ",
"                              ; :           : : : :                                             ",
"                              : : : :               ; :                                         ",
"                              ; : : : :             ; :                                         ",
"                                :   ;                 ;                                         ",
"                                        : : : :         q.q.t.R.U.                              ",
"                                        ; ; ; :         e.q.t.U.K.                              ",
"                                                q.q.P.U.i.q.r.R.K.q.q.                          ",
"                                                q.q.K.U.u.q.r.U.p.q.q.                          ",
"                                  X X X . . X X q.q.q.q.d : : : s R.U.                          ",
"                                  . X X X X X . q.q.9.w.d : ; : s R.R.                          ",
"                          . . * : : ; ; . $ : ; q.q.w 5 a.).^.).(.                              ",
"                          . . ; : ; ; ; X o : : q.q.q : s._._._._.                              ",
"                      ; ; ; ; ; ;           $ $ e e _ *.g.E.W.E.b.X X                           ",
"                      : : ; : ; :           X X : : ;.7.f.j.7.j.1.X X                           ",
"              6.  ; : ; ;                   g g : : t u =.7.x.V.,.* * X X                       ",
"              j.*.: ; : :                   c c : : : : ) j.B.H.,.: : . X                       ",
"              f.-.r y : :                   C C ; ; ; : p :.>.k.` : ; % %                       ",
"              j.c.H.F.                  . @ ^ ^ : : : : % X . X $ : ; : : ; :                   ",
"              j.c.F.H.                  + 8 G ^ : : 3 1 7 6 O X $ : : : : ; :                   ",
"                                        B k X X : : h ! ] #.j X X     : : ; :                   ",
"                                        m k X X : : h ! ] #.j X .     : : ; :                   ",
"                                        m K +.+.#.#.0 : ~ #.#.            : : : :               ",
"                                        m G #.O.#.#.0 : ~ #.#.            : : : :               ",
"                                        m C ( ( #.#.}  .                  : : ; :               ",
"                                        m C ! ^ #.#.#.#.                  : : : :               ",
"                                    m c m / n.n././.M.m.                      : :               ",
"                                  c m m m %.Q.Q._._.!.Q.                      ; :               ",
"                                  S G C c %.Q.Q.~.~.z.l.4.                    f i               ",
"                              m m K ! P m %.Q.Q.! ! O.#.{ #.#.            j.j.A.H.              ",
"                              m m J I I C / N.N.! ! ' O.O.+.              c.c.A.F.              ",
"                          c m c m K ! ! ! ! ! ! m m ! ! ] O.#.            F.H.S.H.              ",
"                          c m m N P P ! ! ! ! ! c c P ! ' [ {             H.F.H.F.              ",
"                          m m I ! ! ! !         m m N m m m c                                   ",
"                          c m P ^ ! ! !         m m N c m m c                                   ",
"                      j.f.6.7.2.!                                                               ",
"                      j.j.j.7.3.^                                                               ",
"                  : : 5 5 C.A.                                                                  ",
"                  : : : : S.H.                                                                  ",
"                  ; 1 a a                                                                       ",
"                  : : j.j.                                                                      ",
"                  : 3 j.j.                                                                      ",
"                                                                                                ",
"                                                                                                ",
"                                                                                                ",
"                                                                                                "
};
