/* XPM */
static char *_04fb982e6244929b80e84e6d41a5442LHB0TT040g6YtJGj[] = {
/* columns rows colors chars-per-pixel */
"48 48 153 2 ",
"   c None",
".  c #4D493F",
"X  c #4E4A40",
"o  c #514C41",
"O  c #565042",
"+  c #5B5444",
"@  c #57534A",
"#  c #58544A",
"$  c #655C46",
"%  c #645C4A",
"&  c #6B6147",
"*  c #67614F",
"=  c #68614C",
"-  c #646057",
";  c #646158",
":  c #7A6E52",
">  c #7A776F",
",  c #7A7770",
"<  c #8F6643",
"1  c #8B6748",
"2  c #87694D",
"3  c #896A4D",
"4  c #84744E",
"5  c #8B7A4F",
"6  c #93714E",
"7  c #8C6E51",
"8  c #827657",
"9  c #8C7A50",
"0  c #82775E",
"q  c #83785F",
"w  c #937350",
"e  c #A57953",
"r  c #9C7F64",
"t  c #958251",
"y  c #9F8954",
"u  c #A98355",
"i  c #A48D55",
"p  c #B38154",
"a  c #B88457",
"s  c #B68853",
"d  c #BF8759",
"f  c #BF8859",
"g  c #A79056",
"h  c #AB9357",
"j  c #9F8F69",
"k  c #9F906F",
"l  c #AA9668",
"z  c #AC996A",
"x  c #BF9866",
"c  c #B69268",
"v  c #BA966B",
"b  c #B39F6D",
"n  c #AD8F76",
"m  c #AA9B77",
"M  c #B5A06F",
"N  c #BAA56F",
"B  c #BDA772",
"V  c #BFA974",
"C  c #B4A37C",
"Z  c #C4A75E",
"A  c #C7A95E",
"S  c #D2A35E",
"D  c #DA9E6C",
"F  c #C49F71",
"G  c #D99373",
"H  c #D5A660",
"J  c #DBA467",
"K  c #D7A861",
"L  c #DCAB62",
"P  c #DAA069",
"I  c #D6B562",
"U  c #DFBC64",
"Y  c #C0AA75",
"T  c #DBA774",
"R  c #D2AB79",
"E  c #CAB37B",
"W  c #DCB47F",
"Q  c #E2BE64",
"!  c #E2BF68",
"~  c #F6BF75",
"^  c #F5B47E",
"/  c #F5BA79",
"(  c #EAC567",
")  c #E4C06A",
"_  c #EEC768",
"`  c #EEC868",
"'  c #F6CC6C",
"]  c #F8CF6A",
"[  c #F8D16F",
"{  c #F8D172",
"}  c #F9D47A",
"|  c #9A9892",
" . c #BAB9B5",
".. c #F29F8C",
"X. c #C7B487",
"o. c #C8B688",
"O. c #DDB580",
"+. c #D4BC80",
"@. c #F2A18C",
"#. c #F3A695",
"$. c #F3AC92",
"%. c #F3AA99",
"&. c #F5B394",
"*. c #F6BC97",
"=. c #F6BC98",
"-. c #F4B3A4",
";. c #F5B8AA",
":. c #F6BDB1",
">. c #D9C492",
",. c #DEC895",
"<. c #E9CE8D",
"1. c #EBD08F",
"2. c #FAD680",
"3. c #F9D887",
"4. c #F2D48D",
"5. c #FADA8B",
"6. c #E4CE99",
"7. c #F7C49A",
"8. c #F8C69B",
"9. c #F8CD9E",
"0. c #EBD190",
"q. c #EFD89F",
"w. c #FADC93",
"e. c #F7DE9E",
"r. c #F9DE9D",
"t. c #F9D5A1",
"y. c #F2DBA1",
"u. c #F9DDA3",
"i. c #F6C0B4",
"p. c #F7C6BA",
"a. c #FBE2A6",
"s. c #FBE3AA",
"d. c #FCE9BC",
"f. c #F8CEC5",
"g. c #F9D1C8",
"h. c #FADCD5",
"j. c #FBDFD9",
"k. c #FCEBC3",
"l. c #FBE1DB",
"z. c #FDF1D4",
"x. c #FDF4DB",
"c. c #FDEDEA",
"v. c #FEF6E5",
"b. c #FDF0ED",
"n. c #FEF9EC",
"m. c #FEF6F5",
"M. c #FFFBF3",
"N. c #FFFDF9",
"B. c #FFFEFD",
"V. c white",
"C. c #FFFFFE",
"Z. c #FDFCFC",
"A. c #FEFDFC",
/* pixels */
"                                                                                                ",
"                                                                                                ",
"                                  X . . X X X X X X X X X X X   f f         f f                 ",
"                              X X X X X X X X X X X X X X X X 3 f f d     d f f d               ",
"                          . . o X X . o 8 z V E E V z 8 o X X 2 f f 3     f f f f               ",
"                      . X X X o + b 1.a.a.a.d.s.a.a.a.a.a.1.M 7 f f 2 X . a f f d               ",
"                    . X X X $ +.a.a.a.a.a.d.B.z.a.a.a.a.a.a.a.W f f 2 X X 3 f f d               ",
"                  X X X o Y a.a.a.a.a.a.a.M.n.s.a.a.a.a.a.a.a.W f f x X X 2 f f f               ",
"                X X X % 1.a.a.a.a.a.a.a.a.A.x.a.a.a.a.a.a.a.a.O.f f O.0.= 3 f f e               ",
"              X X X : r.a.a.a.a.a.a.a.a.a.x.B.d.a.a.a.a.u.>.>.W f f O.a.4.6 f f 3               ",
"            . o X : r.a.a.a.a.a.a.a.a.a.a.a.n.M.a.a.a.m O X X 7 f f W a.w.H f f 2 .             ",
"          . . . = e.a.a.a.a.a.s.a.a.a.a.a.a.x.A.a.a.k . X X X 2 f f W a.w.L f f 2 X .           ",
"          X . o 0.a.a.a.a.a.a.t.u.s.a.a.a.k.B.x.a.6.X X X ; ; 2 f f R a.w.L f f 2 X X           ",
"        . X . Y a.a.a.u.8.9.$...@.8.7.9.a.d.n.a.a.C X X , Z.Z.j f f v a.w.L f f u X X .         ",
"        X X % a.a.a.u.@.................=.u.a.a.a.m X X | B.Z.n d d c a.w.L f f K + X X         ",
"      X X X +.a.a.a.7.........#.#.......#.a.a.a.a.X.X X @  . .2 d d Y a.3.L f f L g X X .       ",
"      X X + a.a.a.a.9.....#.j.B.p.......$.a.a.a.a.u.- . . X X 3 f f O.a.2.L f f L ' . . X       ",
"    X X X M a.a.a.u.=.....j.Z.f.%.......$.9.a.a.a.a.,.% . . X 2 f f O.a.} L f f L ] 9 . . o     ",
"    . X X 0.a.a.a.&.....#.B.f.i.m.c.-.....@.t.a.a.a.a.q.m q q c f f O.a.] L d f S ] A . . .     ",
"    . . o a.a.a.a.@.....;.B.;.m.c.m.j.......7.a.a.a.a.a.a.a.a.O.f f O.w.] L f f L ] ' o o .     ",
"    X X 8 a.a.a.a.&.....-.B.:.B.f.c.l.....@.t.a.a.a.a.a.a.a.a.O.f f W } [ L f f L [ ] & . .     ",
"    X X z a.a.a.a.u.=.....m.c.:.g.B.p...$.9.a.a.a.a.a.a.a.a.a.O.f f W [ ] S f f L ] ] 4 . .     ",
"    X X V a.a.a.a.a.9.....;.m.B.B.h.....$.a.a.a.a.a.a.a.9.7.7.G f f T / ] L f f L ] ] t . o     ",
"    X X E a.a.a.a.a.7.......@.-.%.......@.a.a.a.a.a.a.*.@.@.@.G f f G ..@.L f f L ] ] i . .     ",
"    X X E a.a.a.a.a.u.@.....@.........@.=.a.a.a.s.a.a.@.......G f f G ....D f f L ] ] y X X     ",
"    X X V a.a.a.a.s.a.u.7.9.$...@.8.8.9.a.a.a.a.a.a.a.$.......G f f G ....J f f L ] ] t X X     ",
"    X X l a.a.a.a.n.v.a.a.a.a.t.u.a.a.a.a.a.a.a.a.a.9.$.......G f f G ..@.D f f L ] ] 4 X X     ",
"    X X 8 a.a.a.z.B.k.a.a.a.a.a.a.a.a.a.a.a.a.a.a.t...........G f f G ....G f f L ] ] & X X     ",
"    . X o a.a.a.v.n.a.a.a.a.a.a.a.a.a.a.a.a.a.a.a.7...........G f f G ..@.G f f L ] _ . X .     ",
"    . X X <.a.a.z.B.k.a.a.a.a.q.m q q m y.a.a.a.a.9.@.........G f f G ..@.G f f L [ Z . X .     ",
"    X X X M a.a.a.n.A.a.a.a.,.% X X X X % ,.a.a.a.a.9.$.......G f f G ..@.D f f S ] 5 . X X     ",
"      X X + r.a.a.k.B.d.a.u.- X X X X X X * a.a.a.a.a.$.......G f f G ..@.J f f L ' O . X       ",
"      X X X +.a.a.n.A.a.a.o.X X #  . .# X X o.a.a.a.r.@.......G d f G ....D f f L g . X .       ",
"        X X = r.d.B.k.a.a.m X X | B.B.| X X m a.a.3.[ ^ ......G d d G ....L f f L . o .         ",
"        X X X N a.s.a.a.a.C X X > B.A.> X X C w.} z.5.[ ~ / ' G f f J / ' L f f p . . o         ",
"          X X o <.a.a.a.a.6.o X . - - . X o ) [ k.A.w.[ ] ] ' L f d L ] ] L f f 3 . .           ",
"          . X X + ! } 3.5.w.j X . . . . . i ] ] A.k.[ ] ] ] ] S a e S ] ] S e d 3 X X           ",
"            . X X $ ( ] ] ] ' h + . . + h ] ] ] v.v.[ ] ] ] ] s < < s [ ] s < < 1 X             ",
"              . X X $ U ] ] ] ] ` I I ' ] ] ] ] w.B.k.] ] ] ] S d e S [ Q 6 s p 2               ",
"                X X X + A ] ] ] ] ] ] ] ] ] ] ] ] d.N.[ ] ] ] S f f L S . 6 d d e               ",
"                  X X X X t ( [ ] ] ] ] ] ] ] ] [ v.v.] ] ] [ L f f u X X 3 f f f               ",
"                    X X X X + g ` [ ] ] ] ] ] ] d.A.w.] ] ] [ K f f 3 X X 3 f f f               ",
"                      X X . . . O 9 Z ` ] ] ] ] [ 5.] ] _ Z 5 3 f f 2 X X a f f d               ",
"                          . o . X X X o & 4 t y y t 4 & . . X 2 f f 3     d f f d               ",
"                              . X X X X X X X X . . o . X X X 3 f f d     f f f d               ",
"                                  X X . X X X X . . X X . . .   f f         f f                 ",
"                                                                                                ",
"                                                                                                "
};
