/* XPM */
static char *f96d0cbd754340edb75b8e6757436a7aH10abxFBwT9pfzAs[] = {
/* columns rows colors chars-per-pixel */
"48 48 172 2 ",
"   c None",
".  c #191919",
"X  c gray10",
"o  c #1B1B1B",
"O  c #1D1D1D",
"+  c gray13",
"@  c #222222",
"#  c #232323",
"$  c #24222A",
"%  c gray18",
"&  c #2F2F2F",
"*  c #272531",
"=  c gray19",
"-  c #313131",
";  c #34333A",
":  c #36353C",
">  c #3E3E3E",
",  c #413D39",
"<  c #3E3A4D",
"1  c #3D3C4D",
"2  c #3E3A50",
"3  c #453E5B",
"4  c #463F5F",
"5  c #463F60",
"6  c #524B41",
"7  c #605951",
"8  c #4D456F",
"9  c #4E4670",
"0  c #514776",
"q  c #524877",
"w  c #514878",
"e  c #514978",
"r  c #514979",
"t  c #524878",
"y  c #524978",
"u  c #524879",
"i  c #534979",
"p  c #544B7A",
"a  c #65587A",
"s  c #7D6A7B",
"d  c #7F6D7E",
"f  c #AB1E1E",
"g  c #AB1F1F",
"h  c #8D795F",
"j  c #907B5F",
"k  c #AC926E",
"l  c #B1946F",
"z  c #AB9070",
"x  c #AE9979",
"c  c #B39771",
"v  c #B59971",
"b  c #BA9C7E",
"n  c #CFAE7E",
"m  c #CEAE7F",
"M  c #CFAE7F",
"N  c #D0AD7F",
"B  c #D0AE7F",
"V  c #D0AF7F",
"C  c #574D83",
"Z  c #574F83",
"A  c #584E82",
"S  c #5A4F83",
"D  c #5A5085",
"F  c #635687",
"G  c #645787",
"H  c #625791",
"J  c #625890",
"K  c #625891",
"L  c #685C9C",
"P  c #695E9D",
"I  c #6A5F9C",
"U  c #6A5E9D",
"Y  c #77669A",
"T  c #6B5FA0",
"R  c #6D60A1",
"E  c #6D61A3",
"W  c #6F62A4",
"Q  c #6F62A7",
"!  c #7466AC",
"~  c #7467AD",
"^  c #7567AD",
"/  c #7467AE",
"(  c #7467AF",
")  c #7567AF",
"_  c #7468AE",
"`  c #7568AE",
"'  c #8A7686",
"]  c #8E77B0",
"[  c #947CB2",
"{  c #B49982",
"}  c #AC9494",
"|  c #B49598",
" . c #BF9E98",
".. c #BFA598",
"X. c #9D9CA4",
"o. c #9F83BD",
"O. c #A286BF",
"+. c #A287BF",
"@. c #ADACAC",
"#. c gray68",
"$. c #AEAEAE",
"%. c #AFAFAF",
"&. c #B3AFB1",
"*. c #B0AEBC",
"=. c gray69",
"-. c #B0B0B1",
";. c #B1B1B1",
":. c #B3B3B4",
">. c #B4B4B4",
",. c #B4B4B7",
"<. c #BAB7B7",
"1. c #B8B8B9",
"2. c #B9B9B9",
"3. c #B9B9BC",
"4. c #BBBBBE",
"5. c #BCBCBC",
"6. c #CBAA80",
"7. c #CFAD80",
"8. c #CFAE80",
"9. c #CEAF82",
"0. c #CBAD86",
"q. c #C7A68A",
"w. c #C7AF8C",
"e. c #D0AD80",
"r. c #D0AE80",
"t. c #D0AF80",
"y. c #CFB086",
"u. c #CFB28D",
"i. c #D5B385",
"p. c #D6B585",
"a. c #D8B687",
"s. c #D6B48A",
"d. c #DCB98A",
"f. c #C6B193",
"g. c #CDB695",
"h. c #DAB893",
"j. c #E0BE8F",
"k. c #C7B6A0",
"l. c #CEBEA6",
"z. c #E4C291",
"x. c #E5C392",
"c. c #E0C198",
"v. c #EDC899",
"b. c #ECC99A",
"n. c #F3CE9E",
"m. c #F4CF9E",
"M. c #F3D09D",
"N. c #F4D09E",
"B. c #F4D09F",
"V. c #D6C3A5",
"C. c #D8C3A4",
"Z. c #E8CAA0",
"A. c #EDCDA0",
"S. c #B6B5C2",
"D. c #BFBFC3",
"F. c #C1C1C1",
"G. c #C6C6CB",
"H. c #C8C8CD",
"J. c #C9C9CD",
"K. c #C8C8CF",
"L. c #C9C8CF",
"P. c #CACACF",
"I. c #C9C9D0",
"U. c #C9C9D1",
"Y. c #CACAD0",
"T. c #CBCBD0",
"R. c #CACAD1",
"E. c #CBCBD1",
"W. c #EBDBDB",
"Q. c #ECDFDF",
"!. c #F3F3F3",
"~. c #F4F4F4",
/* pixels */
"                                        = = = = = = = =                                         ",
"                                        = = = = = = = =                                         ",
"                                            = = = = = = = =                                     ",
"                                            = = = = = = & = =                                   ",
"                                        = % = = = = = = h c                                     ",
"                                        = = = = = = = = c r.8.                                  ",
"                                        & & & & j j , % k N                                     ",
"                                            = = M i.6 = c r.M                                   ",
"                                            > > 9.y.7 > x 9.g.                                  ",
"                                        $.,.E.E.E.E.E.E.E.E.R.R.E.                              ",
"                                        $.&.K.K.E.E.K.U.E.K.E.E.E.                              ",
"                                  $.$.} f f g g E.E.,.$.#.$.D.E.E.                              ",
"                                  $.$.} g f g g E.R.,.$.#.$.D.E.E.                              ",
"                              N.m.V.$.<.Q.W.Q.Q.R.K.:.#.#.#.&.$.;.                              ",
"                              B.N.C.$.2.~.~.~.~.R.E.,.$.$.$.$.$.$.                              ",
"                          N.N.j.d.      >.4.!.!.1.3.G.K.3.$.l.A.Z.                              ",
"                          n.m.d.r.      $.-.~.~.$.$.E.E.4.$.V.n.B.                              ",
"                          x.x.i.N i.M 0.w.f.F.F.$.-.H.K.g.f.c.B.M.                              ",
"                          8.r.M r.N r.8.M 8.$.#.$.$.E.E.u.8.x.B.B.                              ",
"                          N 8.M r.v l z b { X.X.X.X.*.S...q.h.b.v.                              ",
"                                  o o $ q q q p p w w p [ +. .8.d.B.m.                          ",
"                                    o * q p F F F F F F ] o.| 6.s.m.n.                          ",
"                              o o       p F O.O.O.O.+.+.Y p p w ' B.m.                          ",
"                              o o       q F O.O.O.O.+.o.Y p 9 p ' B.m.                          ",
"                          o o     _ ` ~ _ ! w p 0 p ~ ~ H i q q ' B.m.                          ",
"                          o o     ` ` ~ _ ! q q u 9 ~ ` J i q p ' N.m.                          ",
"                      o o         Z D D D C 0 q ( ~ ~ ( H q p 0 d a.p.                          ",
"                      o o         p q q q q p q ( ` ( ~ J q p q s r.8.                          ",
"                  o o           ~ W W W W W W W J J H J C w w w a                               ",
"                  o o         ~ ` ~ ~ ~ _ ( ( _ p q 0 p q p q w p                               ",
"                  o           P P P T P P P R P w q p 0 3 1 1 1 2                               ",
"                              w p w w p p q w w p q 0 p : = & & =                               ",
"                              p 0 p 9 w w p w w 5 4 5 4 : % = = %                               ",
"                              0 p q u p w w w p = = = = = = % = %                               ",
"                              p p 0 p 0 9 9 9 9 = = % = = = = % =                               ",
"                                        & & & =     % = = = % = =                               ",
"                                        = = = =     = = = = = = %                               ",
"                                        = = % %     % % = = =                                   ",
"                                        = = = =     = = = = %                                   ",
"                                    O O @ @ @ @     @ @ @ @                                     ",
"                                  o o o o o o o     o o o o o                                   ",
"                                    o o o o         o . o o                                     ",
"                                  o o o o o         o o o o o                                   ",
"                                    o o o o         o o o o                                     ",
"                                  o o o o o         o o o o o                                   ",
"                                  o o o o o         o o o o o                                   ",
"                                  o o o o o         o o o o o o o                               ",
"                                  o o o o o         o o o o o o o                               "
};
