/* XPM */
static char *_a732bf5c8004d23cb5dded31f1bc89c9BXzuaoq70uK25fY[] = {
/* columns rows colors chars-per-pixel */
"64 64 169 2 ",
"   c None",
".  c #172D0E",
"X  c #1A2E0E",
"o  c #1B300F",
"O  c #1C3511",
"+  c #1F3A14",
"@  c #2E2207",
"#  c #24270A",
"$  c #2C2509",
"%  c #252B0C",
"&  c #2B2D0C",
"*  c #342407",
"=  c #392707",
"-  c #3B2907",
";  c #342609",
":  c #382708",
">  c #352A0A",
",  c #3B2A0A",
"<  c #24320F",
"1  c #2C320D",
"2  c #2B3A0F",
"3  c #35330C",
"4  c #3C320D",
"5  c #35390E",
"6  c #372A10",
"7  c #3A2D13",
"8  c #243411",
"9  c #223C13",
"0  c #2C3E12",
"q  c #333F12",
"w  c #383910",
"e  c #3F3219",
"r  c #422E0B",
"t  c #45310D",
"y  c #49330E",
"u  c #433314",
"i  c #4C3511",
"p  c #443F17",
"a  c #4E3917",
"s  c #41351B",
"d  c #49371A",
"f  c #423A1C",
"g  c #4F3C1C",
"h  c #503712",
"j  c #543A15",
"k  c #543C19",
"l  c #593E1A",
"z  c #443922",
"x  c #4D3D22",
"c  c #463C2A",
"v  c #503F22",
"b  c #244215",
"n  c #294614",
"m  c #2D4B15",
"M  c #274018",
"N  c #2C4B18",
"B  c #314514",
"V  c #384014",
"C  c #314E17",
"Z  c #384E14",
"A  c #304E18",
"S  c #345617",
"D  c #365817",
"F  c #3D5B17",
"G  c #345419",
"H  c #365818",
"J  c #3A5C1A",
"K  c #3E621B",
"L  c #3F6120",
"P  c #444416",
"I  c #404B15",
"U  c #414B1D",
"Y  c #58411F",
"T  c #40661B",
"R  c #43681E",
"E  c #4F422D",
"W  c #584524",
"Q  c #574B24",
"!  c #50462F",
"~  c #5B4A2D",
"^  c #524731",
"/  c #544A34",
"(  c #584F39",
")  c #5D513C",
"_  c #624A27",
"`  c #634D2C",
"'  c #684C29",
"]  c #614F31",
"[  c #635031",
"{  c #64563F",
"}  c #6C5A3C",
"|  c #426522",
" . c #466A21",
".. c #496D25",
"X. c #4F6F2E",
"o. c #4E712B",
"O. c #4F722C",
"+. c #4F722C",
"@. c #51742E",
"#. c #476134",
"$. c #507230",
"%. c #537532",
"&. c #557733",
"*. c #537533",
"=. c #557834",
"-. c #5A7B39",
";. c #5B7C3A",
":. c #5D7E3D",
">. c #5C7D3B",
",. c #5D5544",
"<. c #605642",
"1. c #645A47",
"2. c #675E4B",
"3. c #755F42",
"4. c #5B7047",
"5. c #796344",
"6. c #6D6451",
"7. c #746B59",
"8. c #6E7358",
"9. c #7D7358",
"0. c #7C7463",
"q. c #837156",
"w. c #837259",
"e. c #8A765B",
"r. c #807563",
"t. c #8F7F68",
"y. c #817C73",
"u. c #5F803F",
"i. c #628243",
"p. c #648345",
"a. c #668547",
"s. c #638343",
"d. c #67864A",
"f. c #69874B",
"g. c #6C8A4D",
"h. c #6F8D52",
"j. c #6E8B52",
"k. c #6E8658",
"l. c #708053",
"z. c #728E55",
"x. c #728F56",
"c. c #759058",
"v. c #77935C",
"b. c #79945E",
"n. c #7B965F",
"m. c #78935D",
"M. c #7B9660",
"N. c #7D9762",
"B. c #7F9965",
"V. c #809A66",
"C. c #829C69",
"Z. c #849D6A",
"A. c #958975",
"S. c #9F8B73",
"D. c #87A06F",
"F. c #88A06F",
"G. c #8EA477",
"H. c #8DA476",
"J. c #8FA678",
"K. c #8FA679",
"L. c #90A779",
"P. c #95AA7F",
"I. c #94AA7E",
"U. c #96AC80",
"Y. c #96AC81",
"T. c #99AE83",
"R. c #9DB189",
"E. c #9FB38A",
"W. c #A0B38C",
/* pixels */
"                                                              T.E.                                                              ",
"                                                            h.R R &.x.                                                          ",
"                                                    H.x.  a.K K K K K u.                                                        ",
"                                          I.u.R &.O.T T  .R K J K K K R u.J.  s.                                                ",
"                                          =.K K K K K K K K T R K K K K K K ..R &.                                              ",
"                                      T.n.o.R K K K H S J K K T K R R K K S K K K o.K K ..a...K >.C.D.                          ",
"                                      h.R R K K D D D H J K K T R K K K J S S S D K K R K R K K K K R                           ",
"                                        R K K D S D S H K K K K K K K K D S S S S K K K R K K K K K u.  W.U.                    ",
"              s.o...R c.                 .T K K J G n G K T L H S D D D H G A n m J K K K D D S H K $...T  .H.                  ",
"              x.R T T T f.H.  :. .>.L.b.T T R T J m n C K T K G S D D S H S n m J K K J D S S D H J H D K T T &.h.              ",
"            >.&. .T T K J D .. .T T T  .K K T T T K D N J T K D m S m S H m n S J K H G S m A S S S D D D K K T O.T.            ",
"          b.T T T T J S S J K T T T K T K J K K K K K J K J J m m n m K K J K K K K K H A n n m S H D J J D J K d.              ",
"          h.R T T J D D J T K T T T J H H D J J D J K T K K G H D S K K K L K K K K K R K K S m G K K K T K D J c.              ",
"          d...K J J D G K K T T J K J H D S S S D J T T K J K T K K K K K L K K K J K K K K K m G J D D K K L j.                ",
"        >.T T K J G G m K T T T K K D S S D H H J J T K H G H J D D D D D K K H H S H J T K R J A A G H J K %.M.z.D.            ",
"      n. .K J D D D G m S K T T K H G G S S S S D T K J H D H G D D D D D S S S S H H H K R K S n m A G D H J K K K >.          ",
"        M. .K K K D H G m m K K K K S C m m S m G J K D G D D H K K J H G H H H S K K K K K K b n n n S S D D K K K ..F.        ",
"        U.o.T T K K J n n n K K R K K S S S S S A J K D D J K K K K K J H H H G S K K K S S N b A m S A D J T T K K O.>.n.      ",
"    R...T T T T K K K J A n S K R R K S K K K K K J T J J K K K K H K K K K G H H S K K K H K K K K K K D J K K D D K R u.      ",
"    C.R T K K K J J J K J n n K K K K D K K K K K H J K K K J H H H H J K H J G S J K K K K H K D K K K K K S n m S K b.        ",
"  H.s. .T K J D S D S S J A A J K K K K K K K K S D J T K K H H H H H J K G G G S D K K K S S S S D K K K K K m S J K o.R.      ",
"  u.K  .T D S S S S J S D K K R K K D K K R K D D H K K J K S S H G S H J N N G H K K K K S S H D D J K K K K J K T T M.        ",
"  @.K K L G n b N A S S K K R K K S D D K K K K S H H L G G S m G m G H G N G H D K R K H H H H D H H S K K T K m J T p.        ",
"  @.K K K J b b b + n S J K L H H H D D K K K D H H N G N n n n b n N G G A J K K K K K S H H S H H S H H J D S n n D J ..      ",
"  B...K K b b b + + + A K K K H H H S H K | G G m n n n n n m n n n b m N S N A S S A H S H S S D D S D S n n n n n n K ..      ",
"    g.R K S b b + + O b A K  .J H S H S J J D J C S S n n n n n n n N b n N N n N b b N G S S S S D S S n n n n A D K K @.I.    ",
"    E.o.K K S b b b + + O M J J A S m A n C G J K J J D D m n M M n n b n n n n b b b + b N G b n m m n n n n D J K J D K R D.  ",
"      I.u.R K K H b + + O O n K J S m n n n n m m m G J S m n n n n n n n m n b b + b b + b b N n n n n n n m S K S n m K T @.  ",
"        T...K S N + O b + b b m J K T S m S n n n n n n n 0 b n n n n n n n n n n b b b b b n & % n n n n n 9 9 m m n A K T  .  ",
"           .K + . . . + + + O 1 3 n Z F D S 9 9 n n n B ; X o < 1 9 O 9 b b n b 8 2 n n n 9 1 $ o 9 o 9 9 O 9 n n n n S T T R I.",
"          ..K D b . . . . . + M ; $ & 5 8 M M . O 2 1 $ - % o > @ X . b b % $ X X & 8 o o o > $ n S C 9 b b n n n n n D K K a.  ",
"          T.L.D.L N . . O . N G < , - ; % A J 9 . % = # , > & ; # X . A G o & > % & . . . 1 , # < m J S m C m n m S K K @.u.    ",
"                U.K M m J G H m M n w t , B K m . % , # > r - : # . . b J m < , ; % . . < t > X o o n K K K K K +.Z.H.i.J.      ",
"                  P.Z.B.&.D n n n n M B u , B N . 1 - # < y r - # . . 9 D J n 3 r % 8 1 4 ; % o 9 n n C K T u.I.                ",
"                        J.J C n n m n n I i - < O , > # X t r - # . . . o S I t , , , - : 3 b n m C m C K K M.                  ",
"                          x.| H T +.*.k.| P i , > t - % 9 4 y r $ . . 9 2 t t r - * * > q n m C K R K K R u.                    ",
"                              m.H.        4.Q y t r ; 2 n 4 y r * X 9 3 t r 4 - ; z U l.  f. .T T.  h.v.                        ",
"                                              ` t i , 0 n 4 y t ; & 5 r t , * /               V.                                ",
"                                                k h i 8.#.p y y - * r r , * 0.                                                  ",
"                                                A.i i 7.  9.y i t > u r * 6.                                                    ",
"                                                  W j a     t y t t t - 6                                                       ",
"                                                  w.y y j ~ t t t r t : !                                                       ",
"                                                    j r r r y i t r t : 1.                                                      ",
"                                                      ] i r t t t r t : 2.                                                      ",
"                                                        A.u i - , t t ; <.                                                      ",
"                                                          W y r t u t = ^                                                       ",
"                                                          ] y y y t t ; z                                                       ",
"                                                          ` y i i y r ; s                                                       ",
"                                                          } i h i y r - e                                                       ",
"                                                          q.j j j u r - s                                                       ",
"                                                          e.j j j r - - u                                                       ",
"                                                          5.l h l r - ; ,                                                       ",
"                                                          _ Y h h y - , ; 0.                                                    ",
"                                                          l Y i i t r , , 7                                                     ",
"                                                        e.k l y i t t , , ; (                                                   ",
"                                                        ' h k y y r u , , : $                                                   ",
"                                                      S.j h j y y r r 6 , , * (                                                 ",
"                                                      ' i h i y t r r , ; , ; ;                                                 ",
"                                                    5.h i i i h r r r , @ ; ; ; s                                               ",
"                                                  3.i y i r i h - ; r - ; @ @ ; @ > 0.                                          ",
"                                              w.k i t i r - r u * @ r - , 6 c c ) / / y.                                        ",
"                                            r.{ ) d i i u x x ~ ,.7.v u v x 1.                                                  ",
"                                                                                                                                ",
"                                                                                                                                "
};
